Coordinates
version=1
nRows=16
nColumns=36
inDegrees=yes

Units are S.I. units (second, meters, Newtons, ...)
If the header above contains a line with 'inDegrees', this indicates whether rotational values are in degrees (yes) or radians (no).

endheader
time	pelvis_tilt	pelvis_list	pelvis_rotation	pelvis_tx	pelvis_ty	pelvis_tz	hip_flexion_r	hip_adduction_r	hip_rotation_r	knee_angle_r	knee_angle_r_beta	ankle_angle_r	subtalar_angle_r	mtp_angle_r	hip_flexion_l	hip_adduction_l	hip_rotation_l	knee_angle_l	knee_angle_l_beta	ankle_angle_l	subtalar_angle_l	mtp_angle_l	lumbar_extension	lumbar_bending	lumbar_rotation	arm_flex_r	arm_add_r	arm_rot_r	elbow_flex_r	pro_sup_r	arm_flex_l	arm_add_l	arm_rot_l	elbow_flex_l	pro_sup_l
      5.78333330	     -2.08187598	     -0.65079459	     -3.05203214	     -0.02558312	      0.91684159	     -0.04697262	     45.41782347	     -7.88819814	     -8.45757089	      4.37775511	      0.07640624	     -1.75202420	     -2.47249714	     -7.49999987	     30.20071654	      5.50263287	     -0.39222515	     47.93845808	      0.83668393	     30.02388958	     -2.86672065	     -7.49999987	    -19.95098457	     -3.51964440	     -1.14257660	     53.09612152	     10.50780527	     52.81805903	    121.82026668	     93.74439855	     72.50519843	     10.28183305	     73.24601913	    121.18943434	     64.94830670
      5.80000000	     -1.97415738	     -0.47324370	     -3.27036482	     -0.02752709	      0.92560763	     -0.04641844	     44.99453394	     -7.74683345	     -8.34540716	      4.70751601	      0.08216165	     -1.61272782	     -2.34537288	     -7.49999987	     28.78576696	      5.62734206	     -0.37416453	     44.94580392	      0.78445226	     30.20941514	     -2.28373620	     -7.49999987	    -19.59543051	     -3.72821455	     -0.96443261	     52.61224550	     10.53510589	     52.20500391	    121.19058971	     93.74689260	     72.30899506	     10.14076821	     73.15853298	    120.95344997	     65.03421377
      5.81666670	     -1.86041860	     -0.29552943	     -3.46982196	     -0.02849558	      0.93140586	     -0.04669207	     44.81440041	     -7.74453761	     -8.00066802	      5.23700640	      0.09140300	     -1.42147012	     -2.04502528	     -7.49999987	     27.79350077	      5.84522718	     -0.27868340	     42.38369558	      0.73973504	     30.93661585	     -1.41594130	     -7.49999987	    -19.36370095	     -3.89978352	     -1.04619150	     52.27367718	     10.73719673	     51.16693818	    120.44155885	     92.45373086	     72.54003941	      9.86677547	     72.79575606	    120.68893786	     64.89096054
      5.83333330	     -1.92948337	     -0.35232138	     -3.58115814	     -0.02464283	      0.93825751	     -0.04389393	     44.40047499	     -7.47821914	     -7.55490445	      5.73352315	      0.10006886	     -1.07629884	     -2.17323889	     -7.49999987	     26.84120579	      5.54841778	      0.15716581	     40.66992004	      0.70982401	     30.20101064	     -1.83808233	     -7.49999987	    -18.64270369	     -3.84461911	     -0.84906424	     51.34183263	     10.80642964	     50.10777510	    119.57987559	     91.02068528	     71.98724815	      9.58895502	     72.68237295	    120.72343458	     64.74860511
      5.85000000	     -2.10965192	     -0.62462469	     -3.88636042	     -0.02646479	      0.94721237	     -0.04531656	     44.09922978	     -7.02291449	     -7.51568984	      6.14943766	      0.10732793	     -1.32114624	     -2.01138763	     -7.49999987	     25.57106669	      5.16987474	      0.26690200	     38.20389222	      0.66678371	     28.62058442	     -2.02924057	     -7.49999987	    -18.13379292	     -3.55101404	     -0.91134390	     50.73103004	     11.04193819	     49.73665263	    119.36801719	     91.29036982	     71.78023788	      9.32048007	     72.63189374	    120.59164711	     64.84454905
      5.86666670	     -2.12185281	     -1.00933582	     -3.77558955	     -0.02704473	      0.95504475	     -0.04439156	     43.69271570	     -6.58129047	     -7.22761071	      6.46732152	      0.11287605	     -1.30752025	     -1.50969538	     -7.49999987	     23.75832609	      4.89749818	      0.64389242	     35.55355432	      0.62052658	     28.37058451	     -1.70193967	     -7.49999987	    -17.63854284	     -2.99206466	     -0.87243706	     50.38751488	     10.80424654	     48.45251678	    118.59412777	     91.36666885	     71.62120400	      9.12239884	     72.35063464	    120.57742440	     64.88846631
      5.88333330	     -2.12149575	     -1.52553516	     -3.96105445	     -0.02382495	      0.95792042	     -0.04475365	     43.27768069	     -6.06871766	     -6.96605359	      7.18269873	      0.12536174	     -0.66447818	     -0.84126151	     -7.49999987	     21.48840439	      4.43422002	      1.03086830	     32.56348722	      0.56834007	     27.93725016	     -2.16141138	     -7.49999987	    -17.03039133	     -2.31339117	     -0.86183700	     49.94101485	     11.31083664	     47.57048998	    117.77820758	     90.69311485	     71.15940981	      8.84069285	     71.93855030	    120.72259385	     65.06847319
      5.90000000	     -2.61021973	     -2.14830522	     -4.22180033	     -0.02208670	      0.96179686	     -0.04370550	     43.52218932	     -5.42785799	     -7.22453858	      8.14879158	      0.14222324	     -0.36333773	     -1.13527204	     -7.49999987	     20.32326636	      3.76453626	      1.35492327	     30.14339853	      0.52610155	     27.17587903	     -1.91846246	     -7.49999987	    -15.81848278	     -1.52262466	     -0.87596000	     49.32959190	     11.64188915	     47.49682178	    117.61250345	     89.81563146	     70.66743411	      8.58850854	     71.71409420	    120.30326523	     64.91505413
      5.91666670	     -2.40427715	     -2.63473781	     -4.46775621	     -0.02212378	      0.97041460	     -0.04406007	     42.78367793	     -4.84032271	     -6.93679023	      8.78878242	      0.15339319	      0.25304219	     -0.68794422	     -7.49999987	     18.20474953	      3.25509477	      1.50080922	     27.21946017	      0.47506920	     25.14036584	     -2.86672316	     -7.49999987	    -15.59244340	     -0.85929543	     -0.95278123	     48.86665133	     12.07268243	     47.98951864	    118.06483513	     88.71588589	     69.65486722	      8.15457163	     71.14563915	    121.40644489	     65.01087991
      5.93333330	     -2.21395954	     -3.25202903	     -4.57385264	     -0.01953387	      0.97341361	     -0.04366718	     41.96450790	     -4.19539727	     -6.60860629	      9.34507658	      0.16310236	      0.31010440	     -1.22881251	     -7.49999987	     16.49317466	      2.57249115	      1.41870421	     24.89712497	      0.43453680	     23.01848087	     -3.11444093	     -7.49999987	    -15.32746532	     -0.02208531	     -0.97689866	     48.67116423	     12.16954075	     46.93586083	    117.53000134	     88.53625529	     69.11553284	      7.95699848	     70.44859453	    121.20053249	     65.08758346
      5.95000000	     -2.13502665	     -3.78509056	     -4.73435739	     -0.01918755	      0.97850769	     -0.04462141	     41.24564446	     -3.59461734	     -6.53020819	      9.62954606	      0.16806728	      0.23758092	     -1.37882630	     -7.49999987	     15.02082007	      2.04305669	      1.53670904	     22.92021182	      0.40003316	     21.05440771	     -3.46102218	     -7.49999987	    -15.05068517	      0.82026448	     -1.08710315	     48.57198611	     12.23770916	     45.85905471	    117.18867323	     92.38047687	     68.46415879	      7.72458374	     69.73706499	    121.21152757	     66.63956230
      5.96666670	     -2.12784840	     -4.23909741	     -4.84753884	     -0.01945865	      0.98135928	     -0.04437187	     40.66821086	     -3.03515926	     -6.40568607	      9.98167688	      0.17421313	      0.45691835	     -1.26230909	     -7.49999987	     13.97536737	      1.65418115	      1.87645432	     21.05847380	      0.36753970	     19.89121096	     -2.88940944	     -7.49999987	    -14.78896247	      1.39677610	     -1.25127860	     48.52482113	     12.04669454	     44.03328987	    116.44237362	     91.63335302	     68.14781110	      7.58523553	     69.26097562	    121.08792271	     66.51596549
      5.98333330	     -2.27758477	     -4.52767929	     -4.90975126	     -0.01693786	      0.98323458	     -0.04344665	     40.29547494	     -2.58695353	     -6.52451248	     10.00245365	      0.17457575	      0.51514375	     -1.30123201	     -7.49999987	     13.34608493	      1.38978251	      1.91280129	     19.28941309	      0.33666377	     18.55298086	     -2.60464997	     -7.49999987	    -14.13641222	      1.83551459	     -1.55216201	     48.30697257	     12.02977381	     43.26906370	    116.50480356	     90.54164565	     67.45940230	      7.28205678	     69.06008721	    121.09571915	     66.27971045
      6.00000000	     -2.05214689	     -4.79774378	     -4.88953569	     -0.01488878	      0.98428975	     -0.04175336	     39.46011751	     -2.08822928	     -6.39391551	      9.98174692	      0.17421435	      0.84163918	     -1.13203056	     -7.49999987	     12.40916000	      1.06884371	      2.00012110	     17.74584461	      0.30972342	     16.99472370	     -3.10197371	     -7.49999987	    -14.04121749	      2.08865717	     -1.59472697	     48.19653094	     12.02131806	     42.23252102	    116.82005380	     90.37194817	     67.15550865	      7.37632508	     68.71830074	    121.47570845	     66.32162141
      6.01666670	     -1.95571011	     -4.91627462	     -4.80938067	     -0.01255046	      0.98650548	     -0.04162493	     38.73536598	     -1.84374885	     -6.31286771	      9.76873856	      0.17049665	      1.24414401	     -0.84868507	     -7.49999987	     11.66541033	      0.92588218	      2.21537841	     16.42464211	      0.28666408	     15.96774619	     -3.40451263	     -7.49999987	    -13.58841722	      2.15850564	     -1.71156996	     47.78268005	     11.90646012	     41.27304239	    116.52353312	     89.76771954	     66.62400595	      7.40637061	     68.69193185	    121.44862301	     66.39274291
      6.03333330	     -1.87892777	     -5.07110566	     -4.78598368	     -0.01155686	      0.98683174	     -0.04147345	     38.01030485	     -1.51647392	     -6.28188773	      9.53391300	      0.16639817	      1.60145014	     -0.44099542	     -7.49999987	     10.84328268	      0.74467641	      2.36630491	     15.39106585	      0.26862477	     15.23718344	     -3.67347193	     -7.49999987	    -12.93985200	      2.27532230	     -1.75634436	     47.43213414	     12.07513247	     40.74256734	    116.12682941	     89.46597163	     65.88936021	      7.40993703	     68.48914650	    121.32941235	     66.46168747
